<svg xmlns="http://www.w3.org/2000/svg" width="200" height="136" viewBox="0 0 200 136" version="1.1"><path d="M 0 47.500 L 0 95 40.583 95 C 65.957 95, 81.042 94.642, 80.833 94.044 C 80.451 92.947, 0.923 0, 0.366 0 C 0.165 0, 0 21.375, 0 47.500 M 67.001 112.250 L 67.001 117.500 62.250 117.170 C 58.169 116.887, 57.146 117.216, 54.999 119.501 C 51.559 123.162, 51.512 129.787, 54.899 133.392 C 57.087 135.721, 57.990 135.942, 65.149 135.895 L 73 135.843 73 121.422 L 73 107 70 107 C 67.048 107, 67 107.083, 67.001 112.250 M 160 121.500 C 160 133.722, 160.236 136, 161.500 136 C 162.764 136, 163 133.722, 163 121.500 C 163 109.278, 162.764 107, 161.500 107 C 160.236 107, 160 109.278, 160 121.500 M 1 122 L 1 136 3.500 136 C 5.994 136, 6 135.976, 6.028 126.250 L 6.057 116.500 12.278 126.220 C 18.332 135.677, 18.602 135.941, 22.278 135.970 L 26.056 136 25.778 122.250 L 25.500 108.500 22.788 108.187 L 20.077 107.875 19.788 117.129 L 19.500 126.383 13.500 117.207 C 7.981 108.768, 7.239 108.030, 4.250 108.016 L 1 108 1 122 M 150.701 109.632 C 149.127 111.207, 150.061 113.130, 152.250 112.820 C 153.488 112.644, 154.500 111.831, 154.500 111.014 C 154.500 109.425, 151.866 108.467, 150.701 109.632 M 32.306 119.413 C 28.251 122.901, 28.251 130.099, 32.306 133.587 C 38.938 139.292, 50 134.862, 50 126.500 C 50 118.138, 38.938 113.708, 32.306 119.413 M 78.589 120.077 C 75.164 124.147, 75.164 128.853, 78.589 132.923 C 80.809 135.562, 81.842 135.995, 85.839 135.968 C 90.439 135.937, 94 134.296, 94 132.207 C 94 130.620, 89.972 129.628, 88.699 130.901 C 87.147 132.453, 84.464 132.265, 83 130.500 C 81.915 129.192, 82.604 129, 88.378 129 L 95 129 95 125.635 C 95 123.745, 94.092 121.115, 92.927 119.635 C 91.199 117.437, 90.052 117, 86.016 117 C 81.841 117, 80.823 117.422, 78.589 120.077 M 98.788 117.750 C 98.606 118.162, 98.613 122.438, 98.802 127.250 C 99.068 134, 99.473 136, 100.573 136 C 101.647 136, 102 134.544, 102 130.111 C 102 123.064, 104.255 119.311, 107.812 120.440 C 109.804 121.073, 110 121.800, 110 128.567 C 110 135.333, 110.179 136, 112 136 C 113.793 136, 114 135.333, 114 129.571 C 114 123.148, 115.438 120, 118.371 120 C 120.990 120, 122 122.560, 122 129.200 C 122 135.333, 122.196 136, 124 136 C 125.793 136, 126 135.333, 126 129.565 C 126 126.026, 125.566 121.988, 125.035 120.593 C 123.863 117.509, 119.765 116.273, 115.745 117.790 C 113.621 118.592, 112.175 118.581, 110.351 117.750 C 108.517 116.915, 107.085 116.907, 104.930 117.721 C 103.303 118.334, 102 118.420, 102 117.913 C 102 116.819, 99.259 116.680, 98.788 117.750 M 132.441 118.433 C 129.584 120.541, 131.771 122.517, 135.221 120.945 C 137.113 120.083, 138.281 120.080, 139.874 120.932 C 143.075 122.646, 142.458 123.671, 137.776 124.420 C 132.586 125.250, 130 127.449, 130 131.033 C 130 134.986, 131.890 135.993, 139.105 135.885 L 145.528 135.788 145.160 128.144 C 144.917 123.094, 144.266 119.906, 143.241 118.750 C 141.339 116.604, 135.164 116.423, 132.441 118.433 M 151 126.500 C 151 134.278, 151.272 136, 152.500 136 C 153.728 136, 154 134.278, 154 126.500 C 154 118.722, 153.728 117, 152.500 117 C 151.272 117, 151 118.722, 151 126.500 M 171.750 118.080 C 168.919 119.729, 166.732 124.909, 167.418 128.340 C 168.393 133.216, 171.676 136, 176.452 136 C 181.596 136, 185.651 133.489, 183.904 131.385 C 182.875 130.144, 182.474 130.166, 180.945 131.550 C 178.571 133.698, 174.074 133.027, 172.241 130.250 L 170.756 128 178.457 128 L 186.159 128 185.505 124.750 C 184.253 118.525, 177.013 115.015, 171.750 118.080 M 189 126.500 C 189 135.333, 189.140 136, 191 136 C 192.788 136, 193 135.333, 193 129.700 C 193 122.920, 194.037 121, 197.700 121 C 199.333 121, 200 120.420, 200 119 C 200 117.546, 199.333 117, 197.559 117 C 196.216 117, 194.816 117.489, 194.446 118.087 C 193.962 118.870, 193.470 118.870, 192.687 118.087 C 189.776 115.176, 189 116.945, 189 126.500 M 172.750 122.250 L 170.500 124.500 175.861 124.806 C 182.271 125.172, 183.300 124.476, 180.139 121.914 C 177.073 119.428, 175.500 119.500, 172.750 122.250 M 82.713 121.621 C 81.163 123.170, 82.165 124, 85.583 124 C 88.002 124, 89.033 123.594, 88.756 122.750 C 88.297 121.352, 83.818 120.515, 82.713 121.621 M 36.200 123.200 C 34.657 124.743, 34.657 128.257, 36.200 129.800 C 39.005 132.605, 44 130.492, 44 126.500 C 44 123.820, 42.180 122, 39.500 122 C 38.345 122, 36.860 122.540, 36.200 123.200 M 59.200 123.200 C 57.657 124.743, 57.657 128.257, 59.200 129.800 C 62.005 132.605, 67 130.492, 67 126.500 C 67 125.345, 66.460 123.860, 65.800 123.200 C 65.140 122.540, 63.655 122, 62.500 122 C 61.345 122, 59.860 122.540, 59.200 123.200 M 137 127.713 C 132.336 129.440, 132.384 133, 137.072 133 C 139.779 133, 142 130.776, 142 128.066 C 142 126.946, 139.540 126.773, 137 127.713" stroke="none" fill="#24b474" fill-rule="evenodd"/><path d="M 81 47.500 L 81 95 140.500 95 L 200 95 199.968 47.250 C 199.943 9.525, 199.681 -0.173, 198.718 1.056 C 195.466 5.211, 141.813 66.998, 141.046 67.472 C 140.561 67.772, 127.043 52.713, 111.007 34.008 C 94.971 15.304, 81.659 -0, 81.425 -0 C 81.191 -0, 81 21.375, 81 47.500" stroke="none" fill="#1da4d8" fill-rule="evenodd"/></svg>